<?xml version="1.0" encoding="UTF-8"?>
<svg xmlns="http://www.w3.org/2000/svg" xmlns:xlink="http://www.w3.org/1999/xlink" width="14" height="14" viewBox="0 0 14 14" version="1.1">
  <defs>
    <clipPath id="clip1">
      <path d="M 0 0 L 14 0 L 14 13.84375 L 0 13.84375 Z M 0 0 " />
    </clipPath>
  </defs>
  <style>
    tspan { white-space:pre }
    .grayed { fill: #666d89 }
  </style>
  <g id="surface1">
    <g clip-path="url(#clip1)" clip-rule="nonzero">
      <path class="grayed" d="M 13.9375 5.414062 L 13.9375 6.90625 L 11.605469 6.90625 L 11.605469 9.265625 L 10.128906 9.265625 L 10.128906 6.90625 L 7.792969 6.90625 L 7.792969 5.414062 L 10.128906 5.414062 L 10.128906 3.054688 L 11.605469 3.054688 L 11.605469 5.414062 Z M 4.355469 0 L 7.933594 0 L 7.933594 0.078125 C 7.933594 0.484375 7.214844 0.558594 6.726562 0.628906 C 6.558594 0.652344 6.226562 0.6875 6.132812 0.734375 C 7.039062 1.222656 7.183594 1.992188 7.183594 3.140625 C 7.183594 4.445312 6.679688 5.132812 6.144531 5.617188 C 5.8125 5.917969 5.550781 6.152344 5.550781 6.46875 C 5.550781 6.777344 5.90625 7.097656 6.324219 7.464844 C 7.003906 8.066406 7.933594 8.894531 7.933594 10.28125 C 7.933594 11.71875 7.320312 12.746094 6.117188 13.335938 C 5.191406 13.792969 4.191406 13.84375 3.804688 13.84375 C 3.730469 13.84375 3.6875 13.839844 3.679688 13.839844 C 3.679688 13.839844 3.652344 13.839844 3.605469 13.839844 C 3.003906 13.839844 0 13.699219 0 10.9375 C 0 8.214844 3.269531 8.003906 4.273438 8.003906 L 4.300781 8.003906 C 3.722656 7.222656 3.839844 6.433594 3.839844 6.433594 C 3.789062 6.4375 3.714844 6.441406 3.625 6.441406 C 3.246094 6.441406 2.519531 6.378906 1.894531 5.972656 C 1.128906 5.472656 0.738281 4.625 0.738281 3.453125 C 0.738281 0.136719 4.320312 0 4.355469 0 Z M 4.234375 8.714844 C 4.152344 8.714844 4.074219 8.714844 3.992188 8.722656 C 3.308594 8.773438 2.679688 9.03125 2.21875 9.453125 C 1.769531 9.867188 1.535156 10.386719 1.570312 10.917969 C 1.640625 12.023438 2.8125 12.671875 4.242188 12.566406 C 5.648438 12.464844 6.582031 11.648438 6.511719 10.539062 C 6.449219 9.496094 5.554688 8.714844 4.234375 8.714844 Z M 3.671875 0.980469 C 3.570312 0.980469 3.46875 0.996094 3.375 1.023438 C 2.96875 1.136719 2.648438 1.480469 2.46875 1.988281 C 2.289062 2.5 2.273438 3.035156 2.433594 3.648438 C 2.71875 4.738281 3.484375 5.527344 4.257812 5.527344 C 4.359375 5.527344 4.460938 5.515625 4.554688 5.488281 C 5.402344 5.246094 5.929688 3.941406 5.578125 2.695312 C 5.207031 1.371094 4.609375 0.980469 3.671875 0.980469 Z M 3.671875 0.980469 " />
    </g>
  </g>
</svg>
