<?xml version="1.0" encoding="UTF-8"?>
<svg xmlns="http://www.w3.org/2000/svg" width="14" height="14" viewBox="0 0 14 14" version="1.1">
  <style>
    tspan { white-space:pre }
    .grayed { fill: #666d89 }
  </style>
  <g id="surface1">
    <path class="grayed" d="M 0.078125 4.261719 L 3.070312 4.261719 L 3.070312 14 L 0.078125 14 Z M 3.171875 1.554688 C 3.171875 2.390625 2.558594 3.066406 1.554688 3.066406 C 0.609375 3.066406 0 2.390625 0 1.554688 C 0 0.699219 0.628906 0.0390625 1.59375 0.0390625 C 2.558594 0.0390625 3.148438 0.699219 3.171875 1.554688 Z M 4.863281 7.371094 C 4.863281 6.152344 4.824219 5.140625 4.785156 4.261719 L 7.382812 4.261719 L 7.519531 5.617188 L 7.582031 5.617188 C 7.972656 4.980469 8.941406 4.042969 10.554688 4.042969 C 12.523438 4.042969 14 5.378906 14 8.246094 L 14 14 L 11.007812 14 L 11.007812 8.601562 C 11.007812 7.347656 10.574219 6.492188 9.492188 6.492188 C 8.664062 6.492188 8.171875 7.070312 7.957031 7.628906 C 7.875 7.828125 7.855469 8.105469 7.855469 8.382812 L 7.855469 14 L 4.863281 14 Z M 4.863281 7.371094 " />
  </g>
</svg>
