<?xml version="1.0" encoding="UTF-8"?>
<svg xmlns="http://www.w3.org/2000/svg" width="14" height="12" viewBox="0 0 14 12" version="1.1">
  <style>
    tspan { white-space:pre }
    .grayed { fill: #666d89 }
  </style>
  <g id="surface1">
    <path class="grayed" d="M 14 1.453125 C 13.484375 1.691406 12.933594 1.855469 12.351562 1.929688 C 12.945312 1.554688 13.398438 0.964844 13.613281 0.257812 C 13.058594 0.601562 12.441406 0.855469 11.789062 0.992188 C 11.265625 0.402344 10.519531 0.0351562 9.691406 0.0351562 C 8.105469 0.0351562 6.820312 1.390625 6.820312 3.058594 C 6.820312 3.292969 6.847656 3.523438 6.894531 3.746094 C 4.507812 3.621094 2.390625 2.417969 0.972656 0.589844 C 0.726562 1.035156 0.585938 1.554688 0.585938 2.109375 C 0.585938 3.15625 1.09375 4.078125 1.863281 4.621094 C 1.390625 4.605469 0.949219 4.46875 0.5625 4.246094 C 0.5625 4.257812 0.5625 4.269531 0.5625 4.28125 C 0.5625 5.746094 1.550781 6.964844 2.867188 7.242188 C 2.625 7.3125 2.371094 7.347656 2.109375 7.347656 C 1.925781 7.347656 1.742188 7.332031 1.570312 7.296875 C 1.933594 8.496094 2.996094 9.367188 4.25 9.390625 C 3.269531 10.203125 2.03125 10.683594 0.683594 10.683594 C 0.453125 10.683594 0.226562 10.671875 0 10.644531 C 1.269531 11.5 2.78125 12 4.402344 12 C 9.6875 12 12.574219 7.398438 12.574219 3.40625 C 12.574219 3.277344 12.574219 3.144531 12.566406 3.015625 C 13.128906 2.589844 13.613281 2.058594 14 1.453125 Z M 14 1.453125 " />
  </g>
</svg>
